<svg aria-hidden="true" style="position: absolute; width: 0; height: 0; overflow: hidden;" version="1.1" xmlns="http://www.w3.org/2000/svg" xmlns:xlink="http://www.w3.org/1999/xlink">
<defs>
<symbol id="icon-forest" viewBox="0 0 32 32">
<path d="M28.8 23.467l-2.963-5.333h1.896l-2.963-5.333h1.896l-5.333-9.6-3.26 5.867-2.074-3.733-2.074 3.733-3.26-5.867-5.333 9.6h1.896l-2.963 5.333h1.896l-2.963 5.333h5.333v3.733h2.133v-1.6h4.267v3.2h2.133v-3.2h4.267v1.6h2.133v-3.733h5.333zM21.333 7.593l1.707 3.074h-3.416l1.708-3.074zM16 9.726l1.707 3.074h-3.415l1.708-3.074zM15.003 14.933h1.993l1.778 3.2h-5.549l1.778-3.2zM10.667 7.593l1.707 3.074h-3.415l1.708-3.074zM10.904 21.333h-4.079l1.778-3.2h2.182l-1.186 2.133h1.896l-0.593 1.067zM7.892 16l1.778-3.2h1.993l0.094 0.17-1.091 1.964h1.896l-0.593 1.067h-4.078zM12.159 23.467l1.778-3.2h4.125l1.778 3.2h-7.682zM19.437 14.933h1.896l-1.092-1.964 0.095-0.169h1.993l1.778 3.2h-4.078l-0.592-1.067zM20.504 20.267h1.896l-1.185-2.133h2.181l1.778 3.2h-4.078l-0.592-1.067z"></path>
</symbol>
<symbol id="icon-sea" viewBox="0 0 32 32">
<path d="M23.679 26.152c-0.756 0.323-1.637 0.511-2.561 0.511s-1.803-0.188-2.603-0.527l0.044 0.016c-0.756-0.323-1.637-0.511-2.561-0.511s-1.803 0.188-2.603 0.527l0.044-0.016c-0.756 0.323-1.637 0.511-2.561 0.511s-1.803-0.188-2.603-0.527l0.044 0.016c-0.756-0.323-1.637-0.511-2.561-0.511s-1.803 0.188-2.603 0.527l0.044-0.016 0.816 1.971c0.515-0.221 1.114-0.349 1.743-0.349s1.23 0.129 1.775 0.361l-0.030-0.011c2.178 0.902 4.575 0.903 6.751-0.001 0.515-0.221 1.114-0.349 1.743-0.349s1.23 0.129 1.775 0.361l-0.030-0.011c0.997 0.427 2.157 0.675 3.375 0.676h0c1.145 0 2.288-0.225 3.376-0.677l-0.816-1.971zM7.504 23.857c2.178 0.902 4.575 0.903 6.751-0.001 1.126-0.464 2.364-0.466 3.488 0.001 0.997 0.427 2.157 0.675 3.375 0.676h0c1.145 0 2.288-0.225 3.376-0.677 0.515-0.22 1.113-0.349 1.742-0.349 0.63 0 1.23 0.129 1.775 0.361l-0.030-0.011 0.817-1.971c-0.757-0.323-1.637-0.512-2.562-0.512-0.923 0-1.803 0.188-2.602 0.527l0.044-0.016c-0.757 0.324-1.637 0.512-2.561 0.512-0.923 0-1.803-0.188-2.602-0.527l0.044 0.016c-0.757-0.323-1.637-0.512-2.561-0.512-0.923 0-1.803 0.188-2.602 0.527l0.044-0.016c-0.757 0.324-1.637 0.512-2.562 0.512-0.923 0-1.803-0.188-2.602-0.527l0.044 0.016-0.816 1.971zM13.44 17.618c-0.757 0.324-1.637 0.512-2.562 0.512-0.923 0-1.803-0.188-2.602-0.527l0.044 0.016c-0.757-0.323-1.637-0.511-2.561-0.511-0.923 0-1.802 0.188-2.602 0.526l0.044-0.016 0.816 1.971c0.515-0.221 1.114-0.349 1.743-0.349s1.23 0.128 1.775 0.361l-0.030-0.011c2.178 0.902 4.575 0.903 6.751-0.001l-0.816-1.971zM28.8 11.733v-2.133h-3.351c-0.109-0.413-0.264-0.774-0.463-1.107l0.011 0.019 2.371-2.371-1.509-1.508-2.371 2.37c-0.313-0.188-0.675-0.343-1.058-0.445l-0.030-0.007v-3.351h-2.133v3.351c-0.413 0.109-0.775 0.264-1.108 0.463l0.019-0.011-2.37-2.37-1.508 1.508 2.37 2.371c-0.188 0.313-0.343 0.675-0.445 1.058l-0.007 0.030h-3.351v2.133h3.351c0.109 0.413 0.263 0.775 0.462 1.108l-0.011-0.019-2.37 2.371 1.508 1.509 2.37-2.371c0.313 0.189 0.675 0.344 1.059 0.446l0.030 0.007v3.35h2.133v-3.351c0.413-0.109 0.774-0.264 1.107-0.463l-0.019 0.011 2.371 2.371 1.509-1.509-2.371-2.371c0.188-0.313 0.343-0.675 0.445-1.059l0.007-0.030h3.351zM21.332 12.8c-1.178 0-2.132-0.955-2.132-2.132 0-0 0-0.001 0-0.001v0c0-1.178 0.955-2.133 2.133-2.133s2.133 0.955 2.133 2.133v0c0 0 0 0 0 0.001 0 1.178-0.955 2.132-2.132 2.132-0.001 0-0.001 0-0.002 0h0z"></path>
</symbol>
<symbol id="icon-mountain" viewBox="0 0 32 32">
<path d="M31.943 31.286l-11.578-21.442v-9.36c-0.001-0.268-0.218-0.484-0.485-0.485h-8.768c-0 0-0.001 0-0.001 0-0.177 0-0.333 0.096-0.416 0.238l-0.001 0.002c-0.041 0.070-0.065 0.153-0.065 0.242s0.024 0.173 0.066 0.245l-0.001-0.002 1.155 2.022-1.157 2.022c-0.040 0.069-0.064 0.152-0.064 0.241 0 0.268 0.217 0.485 0.485 0.485h8.284v4.349l-4.833 8.951c-0.037 0.067-0.058 0.146-0.058 0.23 0 0.268 0.217 0.485 0.485 0.485 0.183 0 0.343-0.102 0.425-0.252l0.001-0.003 0.977-1.81 3.275 1.6c0.062 0.031 0.135 0.049 0.212 0.049s0.15-0.018 0.215-0.051l-0.003 0.001 3.275-1.6 7.334 13.585h-9.244c-0.268 0-0.485 0.217-0.485 0.485s0.217 0.485 0.485 0.485h10.060c0.267-0 0.484-0.217 0.484-0.485 0-0.084-0.021-0.163-0.059-0.233l0.001 0.003zM11.947 4.525l0.879-1.537c0.040-0.069 0.063-0.152 0.063-0.241s-0.024-0.172-0.065-0.243l0.001 0.002-0.879-1.533h7.447v3.551h-7.447zM19.88 18.071l-3.026-1.479 3.026-5.604 3.027 5.604zM10.105 14.262c-0.083-0.153-0.243-0.255-0.427-0.255s-0.343 0.102-0.425 0.253l-0.001 0.003-9.194 17.024c-0.036 0.066-0.058 0.145-0.058 0.229 0 0.268 0.217 0.485 0.485 0.485h18.386c0.268-0 0.485-0.217 0.485-0.485 0-0.084-0.021-0.163-0.059-0.232l0.001 0.003zM9.678 15.512l2.193 4.061-2.193 1.071-2.193-1.071zM1.297 31.030l5.726-10.6 2.443 1.19c0.062 0.031 0.135 0.049 0.213 0.049s0.151-0.018 0.215-0.051l-0.003 0.001 2.441-1.193 5.726 10.6z"></path>
</symbol>
<symbol id="icon-arrow" viewBox="0 0 32 32">
<path d="M31.71 15.29l-10-10-1.42 1.42 8.3 8.29h-28.59v2h28.59l-8.29 8.29 1.41 1.41 10-10c0.18-0.181 0.291-0.43 0.291-0.705s-0.111-0.524-0.291-0.705l0 0z"></path>
</symbol>
<symbol id="icon-suitcase" viewBox="0 0 32 32">
<path d="M29 11c0.552 0 1-0.448 1-1v0-1.31c-0.006-1.483-1.207-2.684-2.689-2.69h-5.311v-3c0-0.552-0.448-1-1-1v0h-10c-0.552 0-1 0.448-1 1v0 3h-5.31c-1.483 0.006-2.684 1.207-2.69 2.689v15.621c0.005 1.236 0.843 2.275 1.981 2.586l0.019 0.004v0.1c0 1.657 1.343 3 3 3s3-1.343 3-3v0h12c0 1.657 1.343 3 3 3s3-1.343 3-3v0-0.1c1.157-0.315 1.995-1.354 2-2.589v-10.311c0-0.552-0.448-1-1-1s-1 0.448-1 1v0 10.31c0 0.381-0.309 0.69-0.69 0.69h-8.31v-17h8.31c0.381 0 0.69 0.309 0.69 0.69v0 1.31c0 0.552 0.448 1 1 1v0zM26 27c0 0.552-0.448 1-1 1s-1-0.448-1-1v0zM7 28c-0.552 0-1-0.448-1-1v0h2c0 0.552-0.448 1-1 1v0zM15 25v-2c0-0.552-0.448-1-1-1s-1 0.448-1 1v0 2h-8.31c-0.381 0-0.69-0.309-0.69-0.69v-15.62c0-0.381 0.309-0.69 0.69-0.69v0h8.31v11c0 0.552 0.448 1 1 1s1-0.448 1-1v0-3h2v9zM17 14h-2v-6h2zM18 6h-6v-2h8v2z"></path>
</symbol>
<symbol id="icon-airplane" viewBox="0 0 32 32">
<path d="M12.796 26.196c-0.001 0-0.002 0-0.003 0-0.271 0-0.516-0.11-0.693-0.288l-0.070-0.070-1.901-3.747-0.199-0.199-3.747-1.901-0.070-0.070c-0.178-0.178-0.287-0.424-0.287-0.695s0.11-0.517 0.287-0.695l1.311-1.311 3.287 0.851c0.159-0.24 0.331-0.449 0.521-0.639l-0 0 2.656-2.881-7.537-4.148-0.063-0.063c-0.199-0.199-0.322-0.474-0.322-0.778s0.123-0.579 0.322-0.777l1.961-1.961 10.046 3.007 2.921-3.122c0.549-0.557 1.312-0.903 2.156-0.905h0c0.007-0 0.015-0 0.024-0 1.534 0 2.778 1.244 2.778 2.778 0 0.037-0.001 0.074-0.002 0.111l0-0.005c-0.026 0.813-0.366 1.542-0.903 2.073l-0 0-3.097 2.898 3.027 10.114-1.961 1.961c-0.199 0.199-0.474 0.322-0.777 0.322s-0.579-0.123-0.778-0.323v0l-0.063-0.063-0.043-0.078-4.137-7.516-2.894 2.668c-0.183 0.182-0.382 0.347-0.597 0.492l-0.014 0.009 0.867 3.352-1.311 1.311c-0.177 0.178-0.422 0.288-0.692 0.288-0.001 0-0.002 0-0.003 0h0zM7.266 19.143l3.406 1.727 0.48 0.48 1.728 3.407 0.536-0.536-0.934-3.61 0.455-0.224c0.284-0.143 0.527-0.32 0.736-0.532l0-0 0.018-0.018 4.074-3.755 4.743 8.618 1.283-1.283-3.035-10.141 3.646-3.411c0.312-0.312 0.509-0.738 0.524-1.209l0-0.003c0.001-0.021 0.002-0.046 0.002-0.071 0-0.846-0.685-1.531-1.531-1.531-0.008 0-0.017 0-0.025 0h0.001c-0.496 0.003-0.944 0.206-1.267 0.533l-0 0-3.427 3.663-10.073-3.015-1.283 1.283 8.561 4.712-3.76 4.078c-0.217 0.215-0.399 0.466-0.536 0.743l-0.007 0.016-0.222 0.463-3.556-0.92z"></path>
</symbol>
<symbol id="icon-luggage" viewBox="0 0 32 32">
<path d="M26.667 27.2c0 0.884-0.716 1.6-1.6 1.6s-1.6-0.716-1.6-1.6c0-0.884 0.716-1.6 1.6-1.6s1.6 0.716 1.6 1.6z"></path>
<path d="M13.867 27.2c0 0.884-0.716 1.6-1.6 1.6s-1.6-0.716-1.6-1.6c0-0.884 0.716-1.6 1.6-1.6s1.6 0.716 1.6 1.6z"></path>
<path d="M26.667 22.4v-8.533c0-1.173-0.96-2.133-2.133-2.133h-2.133v-0.533c-0.002-0.588-0.478-1.065-1.066-1.067h-5.334c-0.588 0.002-1.065 0.478-1.067 1.066v0.534h-2.133c-1.173 0-2.133 0.96-2.133 2.133v8.533c-1.178 0-2.133-0.955-2.133-2.133v0-14.933c0-0 0-0 0-0 0-1.178-0.955-2.133-2.133-2.133h-3.2v2.133h3.2v14.933c0 2.356 1.911 4.267 4.267 4.267h18.133v-2.134h-2.133zM24.533 13.867v1.237c-1.755 0.537-3.771 0.847-5.86 0.847-2.094 0-4.115-0.311-6.020-0.889l0.147 0.038v-1.233h11.733zM12.8 22.4v-5.065c1.413 0.397 3.055 0.667 4.746 0.753l0.054 0.002v2.176h2.133v-2.176c1.745-0.088 3.387-0.359 4.96-0.793l-0.16 0.038v5.065h-11.733z"></path>
</symbol>
<symbol id="icon-local" viewBox="0 0 32 32">
<path d="M16 21.162c-4.736 0-8.589-3.815-8.589-8.504s3.853-8.504 8.589-8.504 8.59 3.815 8.59 8.504-3.853 8.504-8.59 8.504zM16 5.149c-4.188 0-7.594 3.368-7.594 7.508s3.407 7.509 7.594 7.509 7.594-3.369 7.594-7.509-3.407-7.508-7.594-7.508z"></path>
<path d="M16 32l-0.321-0.271c-0.537-0.453-13.143-11.169-13.143-18.406 0-7.347 6.040-13.323 13.464-13.323s13.463 5.977 13.463 13.323c0 7.236-12.606 17.953-13.142 18.406l-0.321 0.271zM16 0.995c-6.875 0-12.469 5.53-12.469 12.328 0 6.168 10.485 15.633 12.469 17.368 1.984-1.736 12.468-11.202 12.468-17.368 0-6.798-5.593-12.328-12.468-12.328z"></path>
<path d="M18.336 8.168l0.828 0.553-5.644 8.437-0.828-0.553zM13.364 13.136c-0.952 0-1.726-0.768-1.726-1.713v-1.658c0-0.944 0.774-1.713 1.726-1.713s1.727 0.768 1.727 1.713v1.658c-0 0.944-0.775 1.713-1.727 1.713zM13.364 9.049c-0.403 0-0.731 0.322-0.731 0.717v1.658c0 0.396 0.328 0.717 0.731 0.717s0.732-0.322 0.732-0.717v-1.658c-0-0.396-0.328-0.717-0.732-0.717zM18.49 17.273c-0.951 0-1.726-0.768-1.726-1.713v-1.657c0-0.944 0.774-1.713 1.726-1.713s1.727 0.768 1.727 1.713v1.657c0 0.944-0.774 1.713-1.727 1.713zM18.49 13.185c-0.403 0-0.73 0.322-0.73 0.718v1.657c0 0.396 0.328 0.717 0.73 0.717s0.732-0.322 0.732-0.717v-1.657c0-0.396-0.328-0.718-0.732-0.718z"></path>
</symbol>
<symbol id="icon-tiktok" viewBox="0 0 32 32">
<path d="M28.145 0.060h-24.289c-2.093 0-3.795 1.702-3.795 3.795v24.289c0 2.093 1.702 3.795 3.795 3.795h24.289c2.093 0 3.795-1.702 3.795-3.795v-24.289c0-2.093-1.702-3.795-3.795-3.795zM25.113 13.968c-0.156 0.016-0.338 0.026-0.522 0.026h-0.001c-0 0-0 0-0.001 0-1.982 0-3.726-1.014-4.744-2.551l-0.013-0.021v8.757c0 3.575-2.898 6.472-6.472 6.472s-6.472-2.898-6.472-6.472c0-3.575 2.898-6.472 6.472-6.472v0c0.135 0 0.267 0.012 0.4 0.020v3.19c-0.133-0.016-0.263-0.040-0.4-0.040-1.825 0-3.303 1.479-3.303 3.303s1.479 3.303 3.303 3.303v0c1.825 0 3.436-1.438 3.436-3.262l0.032-14.873h3.048c0.295 2.731 2.488 4.867 5.219 5.073l0.019 0.001v3.545z"></path>
</symbol>
<symbol id="icon-telegram" viewBox="0 0 32 32">
<path d="M32 0l-32 18 10.227 3.787 15.773-14.787-11.997 16.187 0.009 0.003-0.012-0.003v8.813l5.735-6.691 7.267 2.691 4.999-28z"></path>
</symbol>
<symbol id="icon-instagram" viewBox="0 0 32 32">
<path d="M31.968 9.408c-0.074-1.701-0.349-2.869-0.742-3.882-0.424-1.111-1.054-2.059-1.85-2.837l-0.001-0.001c-0.78-0.792-1.724-1.419-2.778-1.827l-0.054-0.018c-1.019-0.394-2.181-0.667-3.882-0.742-1.712-0.082-2.256-0.101-6.602-0.101-4.344 0-4.888 0.019-6.595 0.094-1.699 0.074-2.869 0.349-3.88 0.742-1.112 0.424-2.060 1.054-2.839 1.85l-0.001 0.001c-0.791 0.78-1.418 1.724-1.825 2.778l-0.018 0.054c-0.395 1.019-0.669 2.181-0.744 3.882-0.082 1.712-0.101 2.256-0.101 6.602 0 4.344 0.019 4.888 0.094 6.595 0.075 1.701 0.35 2.869 0.744 3.882 0.426 1.11 1.055 2.057 1.849 2.837l0.001 0.001c0.8 0.813 1.77 1.443 2.832 1.843 1.019 0.395 2.182 0.67 3.882 0.744 1.707 0.075 2.251 0.094 6.595 0.094 4.346 0 4.89-0.019 6.595-0.094 1.701-0.074 2.869-0.349 3.882-0.742 2.157-0.85 3.833-2.526 4.664-4.628l0.019-0.055c0.394-1.019 0.669-2.182 0.744-3.882 0.075-1.707 0.093-2.251 0.093-6.595s-0.006-4.888-0.080-6.595zM29.088 22.474c-0.070 1.563-0.333 2.406-0.55 2.97-0.552 1.399-1.64 2.486-3.004 3.024l-0.036 0.012c-0.56 0.219-1.411 0.482-2.968 0.55-1.688 0.075-2.194 0.094-6.464 0.094-4.269 0-4.782-0.019-6.464-0.094-1.563-0.069-2.406-0.331-2.97-0.55-0.721-0.269-1.334-0.676-1.836-1.192l-0.001-0.001c-0.517-0.503-0.924-1.117-1.184-1.803l-0.011-0.034c-0.218-0.563-0.48-1.413-0.549-2.97-0.075-1.688-0.094-2.195-0.094-6.464 0-4.27 0.019-4.784 0.094-6.464 0.069-1.563 0.331-2.406 0.549-2.97 0.269-0.722 0.678-1.337 1.198-1.837l0.002-0.002c0.504-0.517 1.119-0.923 1.806-1.182l0.034-0.011c0.56-0.219 1.411-0.48 2.968-0.55 1.688-0.074 2.195-0.093 6.464-0.093 4.275 0 4.782 0.019 6.464 0.093 1.563 0.069 2.406 0.331 2.97 0.55 0.693 0.256 1.325 0.662 1.837 1.194 0.531 0.52 0.938 1.144 1.195 1.84 0.218 0.56 0.48 1.411 0.549 2.968 0.075 1.688 0.094 2.194 0.094 6.464 0 4.269-0.019 4.768-0.094 6.458z"></path>
<path d="M16.059 7.782c-4.539 0.002-8.218 3.682-8.219 8.221v0c0.091 4.471 3.737 8.060 8.221 8.060s8.13-3.589 8.221-8.052l0-0.009c-0.001-4.54-3.681-8.22-8.221-8.221h-0zM16.059 21.334c-2.945-0-5.332-2.388-5.332-5.333s2.388-5.333 5.333-5.333c0 0 0.001 0 0.001 0h-0c2.946 0 5.334 2.388 5.334 5.334s-2.388 5.334-5.334 5.334v0zM26.525 7.458c0 1.060-0.86 1.92-1.92 1.92s-1.92-0.86-1.92-1.92v0c0-1.060 0.86-1.92 1.92-1.92s1.92 0.86 1.92 1.92v0z"></path>
</symbol>
<symbol id="icon-discord" viewBox="0 0 32 32">
<path d="M27.107 5.637c-1.908-0.917-4.123-1.638-6.444-2.051l-0.158-0.023c-0.284 0.514-0.617 1.206-0.846 1.756-2.462-0.37-4.9-0.37-7.317 0-0.229-0.55-0.569-1.242-0.856-1.756-2.481 0.437-4.697 1.16-6.763 2.147l0.157-0.067c-4.178 6.314-5.311 12.47-4.744 18.54 2.771 2.069 5.457 3.326 8.097 4.149 0.607-0.825 1.183-1.76 1.681-2.741l0.053-0.115c-1.056-0.406-1.955-0.852-2.806-1.372l0.075 0.043c0.259-0.192 0.477-0.366 0.689-0.546l-0.020 0.016c5.265 2.463 10.986 2.463 16.189 0 0.188 0.158 0.406 0.332 0.628 0.5l0.041 0.030c-0.777 0.478-1.678 0.926-2.62 1.292l-0.116 0.040c0.501 1.003 1.080 1.959 1.734 2.856 2.643-0.823 5.331-2.080 8.102-4.152 0.665-7.036-1.135-13.136-4.757-18.545zM10.684 20.449c-1.581 0-2.877-1.476-2.877-3.273s1.269-3.275 2.877-3.275c1.608 0 2.905 1.476 2.877 3.275 0.002 1.797-1.268 3.273-2.877 3.273zM21.316 20.449c-1.581 0-2.877-1.476-2.877-3.273s1.268-3.275 2.877-3.275c1.608 0 2.904 1.476 2.877 3.275 0 1.797-1.268 3.273-2.877 3.273z"></path>
</symbol>
<symbol id="icon-phone" viewBox="0 0 32 32">
<path d="M24.882 19.774l-3.268-0.373c-0.090-0.011-0.194-0.018-0.3-0.018-0.707 0-1.347 0.287-1.81 0.75l-2.368 2.368c-3.669-1.894-6.585-4.81-8.427-8.372l-0.051-0.108 2.382-2.377c0.463-0.463 0.75-1.103 0.75-1.81 0-0.106-0.006-0.21-0.019-0.312l0.001 0.012-0.373-3.243c-0.155-1.287-1.24-2.276-2.557-2.276-0.001 0-0.002 0-0.003 0h-2.226c-1.454 0-2.663 1.209-2.574 2.661 0.683 10.987 9.47 19.762 20.444 20.444 1.452 0.089 2.663-1.12 2.663-2.574v-2.226c0-0.004 0-0.008 0-0.012 0-1.308-0.985-2.386-2.253-2.532l-0.012-0.001z"></path>
</symbol>
<symbol id="icon-email" viewBox="0 0 32 32">
<path d="M26.667 5.333h-21.333c-1.467 0-2.652 1.2-2.652 2.667l-0.014 16c0 1.467 1.2 2.667 2.667 2.667h21.333c1.467 0 2.667-1.2 2.667-2.667v-16c0-1.467-1.2-2.667-2.667-2.667zM26.133 11.001l-9.426 5.892c-0.201 0.126-0.446 0.2-0.708 0.2s-0.506-0.075-0.713-0.204l0.006 0.003-9.426-5.892c-0.336-0.201-0.557-0.562-0.557-0.975 0-0.625 0.507-1.132 1.132-1.132 0.233 0 0.449 0.070 0.629 0.19l-0.004-0.003 8.933 5.586 8.933-5.588c0.176-0.118 0.392-0.188 0.624-0.188 0.625 0 1.132 0.507 1.132 1.132 0 0.413-0.221 0.775-0.552 0.972l-0.005 0.003z"></path>
</symbol>
<symbol id="icon-x" viewBox="0 0 32 32">
<path stroke-linejoin="round" stroke-linecap="round" stroke-miterlimit="4" stroke-width="2.6667" d="M24 8l-16 16"></path>
<path stroke-linejoin="round" stroke-linecap="round" stroke-miterlimit="4" stroke-width="2.6667" d="M8 8l16 16"></path>
</symbol>
<symbol id="icon-menu" viewBox="0 0 32 32">
<path stroke-linejoin="round" stroke-linecap="round" stroke-miterlimit="4" stroke-width="2.6667" d="M4 16h24"></path>
<path stroke-linejoin="round" stroke-linecap="round" stroke-miterlimit="4" stroke-width="2.6667" d="M4 8h24"></path>
<path stroke-linejoin="round" stroke-linecap="round" stroke-miterlimit="4" stroke-width="2.6667" d="M4 24h24"></path>
</symbol>
</defs>
</svg>
